<?xml version="1.0" encoding="utf-8"?>
<svg version="1.1" id="MilwaukeeFlag" xmlns="http://www.w3.org/2000/svg" xmlns:xlink="http://www.w3.org/1999/xlink" width="500" height="300" xml:space="preserve">
<rect y="150" fill="#F8A239" width="500" height="150"/>
<rect y="0" fill="#4CA090" width="500" height="150"/>
<path fill="#FFFFFF" d="M250,50c-55.2,0-100,44.8-100,100l200,0C350,94.8,305.2,50,250,50z"/>
<g>
  <path fill="#90B76F" d="M350,150H150c0,6.8,0.7,13.5,2,20h196C349.3,163.5,350,156.8,350,150z"/>
  <path fill="#90B76F" d="M170,210h160c4.6-6.2,8.5-12.9,11.6-20H158.3C161.5,197.1,165.4,203.8,170,210z"/>
  <path fill="#90B76F" d="M250,250c22.5,0,43.3-7.4,60-20H190C206.7,242.5,227.5,250,250,250z"/>
</g>
</svg>
