<svg height="512pt" viewBox="0 0 512.04029 512" width="512pt" xmlns="http://www.w3.org/2000/svg"><path d="m366.652344 82.757812 62.648437 62.648438c24.132813 24.128906 24.132813 63.253906 0 87.386719l-268.921875 268.921875c-13.789062 13.789062-36.144531 13.789062-49.9375 0l-100.097656-100.101563c-13.792969-13.789062-13.792969-36.144531 0-49.933593l268.921875-268.921876c24.128906-24.132812 63.253906-24.132812 87.386719 0zm0 0" fill="#67b9cc"/><path d="m454.214844 7.777344 50.070312 50.070312c10.339844 10.339844 10.339844 27.109375 0 37.449219l-31.296875 31.296875c-3.449219 3.449219-9.035156 3.449219-12.484375 0l-75.039062-75.039062c-3.445313-3.445313-3.445313-9.035157 0-12.480469l31.296875-31.296875c10.34375-10.34375 27.109375-10.34375 37.453125 0zm0 0" fill="#e64c3c"/><g fill="#802d40"><path d="m416.734375 54.140625c-3.570313 0-6.789063-2.148437-8.15625-5.449219-1.367187-3.296875-.609375-7.09375 1.914063-9.617187l12.5-12.5c2.214843-2.296875 5.5-3.214844 8.585937-2.410157 3.085937.808594 5.496094 3.21875 6.304687 6.304688.808594 3.085938-.113281 6.371094-2.410156 8.585938l-12.496094 12.5c-1.65625 1.660156-3.902343 2.589843-6.242187 2.585937zm0 0"/><path d="m441.738281 79.148438c-3.570312 0-6.789062-2.148438-8.15625-5.449219-1.363281-3.296875-.609375-7.09375 1.914063-9.617188l12.503906-12.507812c2.21875-2.289063 5.496094-3.203125 8.578125-2.394531 3.082031.808593 5.488281 3.21875 6.296875 6.296874.808594 3.082032-.105469 6.359376-2.390625 8.578126l-12.503906 12.507812c-1.65625 1.660156-3.902344 2.589844-6.242188 2.585938zm0 0"/><path d="m466.746094 104.148438c-3.570313 0-6.789063-2.148438-8.152344-5.449219-1.367188-3.296875-.613281-7.09375 1.910156-9.617188l12.5-12.5c3.464844-3.359375 8.980469-3.316406 12.390625.09375 3.410157 3.410157 3.449219 8.925781.09375 12.386719l-12.5 12.5c-1.65625 1.660156-3.902343 2.589844-6.242187 2.585938zm0 0"/></g><path d="m385.472656 51.566406 75.019532 75.015625-25.003907 25.007813-75.019531-75.019532zm0 0" fill="#c03a2b"/><path d="m79.148438 341.710938c-3.570313 0-6.789063-2.152344-8.15625-5.449219-1.367188-3.300781-.613282-7.097657 1.914062-9.621094l218.804688-218.800781c2.21875-2.285156 5.496093-3.199219 8.578124-2.390625 3.082032.808593 5.488282 3.214843 6.296876 6.296875.808593 3.082031-.105469 6.359375-2.390626 8.578125l-218.8125 218.800781c-1.652343 1.65625-3.894531 2.585938-6.234374 2.585938zm0 0" fill="#fff"/><path d="m41.640625 379.21875c-3.570313 0-6.789063-2.152344-8.15625-5.449219s-.613281-7.09375 1.914063-9.621093l12.503906-12.496094c2.21875-2.289063 5.496094-3.203125 8.578125-2.394532 3.078125.808594 5.484375 3.214844 6.296875 6.296876.808594 3.082031-.105469 6.359374-2.394532 8.578124l-12.503906 12.5c-1.652344 1.65625-3.898437 2.589844-6.238281 2.585938zm0 0" fill="#fff"/><path d="m335.441406 151.570312 87.542969 87.542969-256.316406 256.3125-87.539063-87.539062c-6.894531-6.898438-6.894531-18.074219 0-24.96875l231.34375-231.347657c6.894532-6.894531 18.074219-6.894531 24.96875 0zm0 0" fill="#2980ba"/></svg>