<svg height="480pt" viewBox="-28 0 480 480" width="480pt" xmlns="http://www.w3.org/2000/svg"><path d="m80 56-16-56h64l-16 56" fill="#fdb918"/><path d="m104 0h-40l16 56h8zm0 0" fill="#fedd43"/><path d="m138.3125 204.945312.398438.863282c35.097656 75.214844 53.289062 157.207031 53.289062 240.199218v33.992188h-192v-33.992188c0-83 18.191406-164.984374 53.289062-240.199218l.398438-.863282c1.535156-3.296874 3.320312-6.464843 5.335938-9.488281 8.464843-12.6875 12.976562-27.59375 12.976562-42.839843v-96.617188c0-4.414062 3.585938-8 8-8h32c4.414062 0 8 3.585938 8 8v96.617188c0 15.246093 4.511719 30.152343 12.96875 42.839843 2.015625 3.023438 3.800781 6.199219 5.34375 9.488281zm0 0" fill="#009245"/><path d="m176 480v-33.847656c0-83.039063-18.191406-165.082032-53.289062-240.34375l-.398438-.863282c-1.710938-3.671874-3.738281-7.203124-6.046875-10.539062-8.546875-12.328125-12.265625-27.367188-12.265625-42.367188v-96.039062c0-4.414062-3.585938-8-8-8h-16c-4.414062 0-8 3.585938-8 8v96.039062c0 15-3.71875 30.039063-12.265625 42.375-2.308594 3.339844-4.328125 6.859376-6.046875 10.539063l-.398438.863281c-35.097656 75.253906-53.289062 157.296875-53.289062 240.335938v33.847656zm0 0" fill="#39b54a"/><path d="m72 72h24v16h-24zm0 0" fill="#006837"/><path d="m2.078125 400h187.84375c-2.195313-26.953125-6.167969-53.695312-12.152344-80h-163.539062c-5.984375 26.304688-9.957031 53.046875-12.152344 80zm0 0" fill="#fdb918"/><path d="m14.230469 320c-5.984375 26.304688-9.957031 53.046875-12.152344 80h155.84375c-2.195313-26.953125-6.167969-53.695312-12.152344-80zm0 0" fill="#fedd43"/><g fill="#f7931e"><path d="m6.695312 360h65.304688v-16h-62.59375c-.964844 5.320312-1.902344 10.648438-2.710938 16zm0 0"/><path d="m88 344h16v16h-16zm0 0"/><path d="m182.59375 344h-62.59375v16h65.304688c-.808594-5.351562-1.746094-10.679688-2.710938-16zm0 0"/></g><path d="m312 248v133.128906c0 18.917969-13.191406 35.582032-31.777344 39.144532-28.808594 5.511718-48.222656 15.855468-48.222656 27.726562 0 17.671875 42.984375 32 96 32s96-14.328125 96-32c0-11.871094-19.414062-22.214844-48.222656-27.726562-18.585938-3.554688-31.777344-20.226563-31.777344-39.144532v-133.128906" fill="#ccc"/><path d="m328 256c-53.015625 0-96-42.984375-96-96v-160h192v160c0 53.015625-42.984375 96-96 96zm0 0" fill="#b3b3b3"/><path d="m316 255.167969c47.34375-5.910157 84-46.222657 84-95.167969v-160h-168v160c0 48.945312 36.65625 89.257812 84 95.167969zm0 0" fill="#e6e6e6"/></svg>