<svg height="480pt" viewBox="0 0 480 480" width="480pt" xmlns="http://www.w3.org/2000/svg"><path d="m320 440c0 22.089844 17.910156 40 40 40h-320c-22.089844 0-40-17.910156-40-40v-440h320zm0 0" fill="#b8cbd9"/><path d="m0 381.046875c131.257812-19.351563 232-132.414063 232-269.046875 0-39.945312-8.679688-77.832031-24.144531-112h-207.855469zm0 0" fill="#e8eff4"/><path d="m480 320v-224h-64v-64h-160v288zm0 0" fill="#2d4d83"/><path d="m368 68c0-12.152344-.480469-24.160156-1.398438-36h-110.601562v288h30.945312c50.070313-64.449219 81.054688-153.550781 81.054688-252zm0 0" fill="#4472b2"/><path d="m480 96-64-64v64zm0 0" fill="#4472b2"/><path d="m360 480c-22.089844 0-40-17.910156-40-40v-88h80v88c0 22.089844-17.910156 40-40 40zm0 0" fill="#8892a0"/><path d="m184 104h-152c-4.414062 0-8-3.574219-8-8v-64c0-4.425781 3.585938-8 8-8h152c4.414062 0 8 3.574219 8 8v64c0 4.425781-3.585938 8-8 8zm-144-16h136v-48h-136zm0 0" fill="#8892a0"/><path d="m24 120h160v16h-160zm0 0" fill="#8892a0"/><path d="m24 152h160v16h-160zm0 0" fill="#8892a0"/><path d="m24 184h160v16h-160zm0 0" fill="#8892a0"/><path d="m24 216h160v16h-160zm0 0" fill="#8892a0"/><g fill="#e8eff4"><path d="m280 216h88v16h-88zm0 0"/><path d="m280 248h88v16h-88zm0 0"/><path d="m280 280h88v16h-88zm0 0"/><path d="m280 184h176v16h-176zm0 0"/><path d="m280 152h176v16h-176zm0 0"/><path d="m280 120h176v16h-176zm0 0"/></g><path d="m24 440h272v16h-272zm0 0" fill="#8892a0"/><path d="m24 408h272v16h-272zm0 0" fill="#8892a0"/><path d="m24 376h272v16h-272zm0 0" fill="#8892a0"/></svg>