<?xml version="1.0" encoding="iso-8859-1"?>
<!-- Generator: Adobe Illustrator 19.0.0, SVG Export Plug-In . SVG Version: 6.00 Build 0)  -->
<svg version="1.1" id="Capa_1" xmlns="http://www.w3.org/2000/svg" xmlns:xlink="http://www.w3.org/1999/xlink" x="0px" y="0px"
	 viewBox="0 0 464 464" style="enable-background:new 0 0 464 464;" xml:space="preserve">
<path style="fill:#FDBD40;" d="M176,400h112c17.673,0,32,14.327,32,32l0,0H144l0,0C144,414.327,158.327,400,176,400z"/>
<path style="fill:#FCF05A;" d="M64,32h336c17.673,0,32,14.327,32,32v240c0,17.673-14.327,32-32,32H64c-17.673,0-32-14.327-32-32V64
	C32,46.327,46.327,32,64,32z"/>
<path style="fill:#FDBD40;" d="M32,272h400l0,0v32c0,17.673-14.327,32-32,32H64c-17.673,0-32-14.327-32-32V272L32,272z"/>
<g>
	<path style="fill:#5F79BA;" d="M16,192h144c8.837,0,16,7.163,16,16v208c0,8.837-7.163,16-16,16H16c-8.837,0-16-7.163-16-16V208
		C0,199.163,7.163,192,16,192z"/>
	<path style="fill:#5F79BA;" d="M384,240h64c8.837,0,16,7.163,16,16v160c0,8.837-7.163,16-16,16h-64c-8.837,0-16-7.163-16-16V256
		C368,247.163,375.163,240,384,240z"/>
</g>
<g>
	<path style="fill:#FCF05A;" d="M368,400h96l0,0v16c0,8.837-7.163,16-16,16h-64c-8.837,0-16-7.163-16-16V400L368,400z"/>
	<path style="fill:#FCF05A;" d="M0,400h176l0,0v16c0,8.837-7.163,16-16,16H16c-8.837,0-16-7.163-16-16V400L0,400z"/>
	<path style="fill:#FCF05A;" d="M208,336h48v64h-48V336z"/>
	<path style="fill:#FCF05A;" d="M48,328.968c-4.418-0.001-7.999-3.583-7.998-8.002c0-2.121,0.843-4.154,2.342-5.654l33.936-33.936
		c3.069-3.178,8.134-3.266,11.312-0.196c3.178,3.07,3.266,8.134,0.196,11.312c-0.064,0.067-0.13,0.132-0.196,0.196l-33.936,33.936
		C52.156,328.124,50.122,328.968,48,328.968z"/>
	<path style="fill:#FCF05A;" d="M96,328.968c-4.418-0.001-7.999-3.583-7.998-8.002c0-2.121,0.843-4.154,2.342-5.654l33.936-33.936
		c3.178-3.069,8.243-2.982,11.312,0.196c2.994,3.1,2.994,8.015,0,11.116l-33.936,33.936C100.156,328.124,98.122,328.968,96,328.968z
		"/>
</g>
<g>
	<path style="fill:#FDBD40;" d="M176,199.2c-4.418-0.001-7.999-3.583-7.998-8.002c0-2.121,0.843-4.155,2.342-5.654l79.2-79.2
		c3.178-3.069,8.242-2.982,11.312,0.196c2.994,3.1,2.994,8.015,0,11.116l-79.2,79.2C180.16,198.362,178.123,199.206,176,199.2
		L176,199.2z"/>
	<path style="fill:#FDBD40;" d="M224.8,199.2c-4.418-0.001-7.999-3.583-7.998-8.002c0-2.121,0.843-4.155,2.342-5.654l79.2-79.2
		c3.178-3.069,8.242-2.982,11.312,0.196c2.994,3.1,2.994,8.015,0,11.116l-79.2,79.2C228.956,198.356,226.922,199.2,224.8,199.2
		L224.8,199.2z"/>
</g>
<path style="fill:#FCF05A;" d="M404.688,339.312c-4.418-0.001-7.999-3.583-7.998-8.002c0-2.121,0.843-4.154,2.342-5.654
	l22.624-22.624c3.178-3.07,8.242-2.982,11.312,0.196c2.995,3.1,2.995,8.016,0,11.116l-22.624,22.624
	C408.844,338.468,406.81,339.312,404.688,339.312z"/>
<path d="M232.16,312c-4.418,0.022-8.018-3.542-8.04-7.96c-0.022-4.418,3.542-8.018,7.96-8.04h0.08c4.418,0,8,3.582,8,8
	S236.578,312,232.16,312z"/>
<path style="fill:#FDBD40;" d="M248,72h-32c-4.418,0-8-3.582-8-8s3.582-8,8-8h32c4.418,0,8,3.582,8,8S252.418,72,248,72z"/>
<g>
</g>
<g>
</g>
<g>
</g>
<g>
</g>
<g>
</g>
<g>
</g>
<g>
</g>
<g>
</g>
<g>
</g>
<g>
</g>
<g>
</g>
<g>
</g>
<g>
</g>
<g>
</g>
<g>
</g>
</svg>
