<svg height="480pt" viewBox="0 0 480 480" width="480pt" xmlns="http://www.w3.org/2000/svg"><path d="m192 240-16-32h-144l-16 32" fill="#c18e59"/><path d="m0 240h208v32h-208zm0 0" fill="#b8cbd9"/><path d="m184 272-8 48h-144l-8-48" fill="#e8eff4"/><path d="m168 432v48h-128v-48" fill="#e8eff4"/><path d="m176 432h-144l-8-112h160zm0 0" fill="#c18e59"/><path d="m128 376c0 13.253906-10.746094 24-24 24s-24-10.746094-24-24 10.746094-24 24-24 24 10.746094 24 24zm0 0" fill="#fff"/><path d="m448 112h-176c-17.671875 0-32 14.328125-32 32v304c0 17.671875 14.328125 32 32 32h176c17.671875 0 32-14.328125 32-32v-304c0-17.671875-14.328125-32-32-32zm0 0" fill="#b8cbd9"/><path d="m272 112c-17.671875 0-32 14.328125-32 32v254.742188c6.574219.832031 13.246094 1.257812 20 1.257812 108.246094 0 196-109.238281 196-244 0-14.863281-1.128906-29.382812-3.167969-43.511719-1.59375-.242187-3.175781-.488281-4.832031-.488281zm0 0" fill="#e8eff4"/><path d="m272 64h176v48h-176zm0 0" fill="#b8cbd9"/><path d="m240 224h240v144h-240zm0 0" fill="#c18e59"/><path d="m400 296c0 22.089844-17.910156 40-40 40s-40-17.910156-40-40 17.910156-40 40-40 40 17.910156 40 40zm0 0" fill="#fff"/><path d="m256 0h208v64h-208zm0 0" fill="#c18e59"/></svg>