<svg height="480pt" viewBox="0 0 480 480" width="480pt" xmlns="http://www.w3.org/2000/svg"><path d="m480 120c0 66.273438-53.726562 120-120 120s-120-53.726562-120-120 53.726562-120 120-120 120 53.726562 120 120zm0 0" fill="#8bd2f5"/><g fill="#fff"><path d="m296 157.300781c0-2 .5-3.902343 1.601562-5.601562l14-22.699219 9.296876 18.601562 14.300781-7.203124-16-32c-1.597657-3.199219-5.199219-5-8.699219-4.296876l-40 8 3.101562 15.699219 22.699219-4.5-12.300781 20c-2.601562 4.199219-4 9-4 14 0 14.699219 12 26.699219 26.699219 26.699219h29.300781v-16h-29.300781c-5.898438 0-10.699219-4.800781-10.699219-10.699219zm0 0"/><path d="m354.601562 59c2.296876-3.800781 8.398438-3.800781 10.796876 0l21 34.101562-24.796876-5-3.101562 15.699219 40 8c.5.097657 1 .199219 1.601562.199219 3 0 5.796876-1.699219 7.199219-4.398438l16-32-14.300781-7.203124-8.5 16.902343-21.5-34.699219c-4.101562-6.601562-11.199219-10.601562-19-10.601562s-14.898438 4-19 10.601562l-20.398438 33.199219 13.597657 8.398438zm0 0"/><path d="m436 143.300781-12-19.5-13.601562 8.398438 12 19.5c1 1.699219 1.601562 3.601562 1.601562 5.601562 0 5.898438-4.800781 10.699219-10.699219 10.699219h-34l10.300781-10.300781-11.300781-11.300781-24 24c-3.101562 3.101562-3.101562 8.203124 0 11.300781l24 24 11.300781-11.300781-10.300781-10.398438h34c14.699219 0 26.699219-12 26.699219-26.699219 0-5-1.398438-9.800781-4-14zm0 0"/></g><path d="m56 0h80v48h-80zm0 0" fill="#b8cbd9"/><path d="m128 448c0 17.699219-14.300781 32-32 32s-32-14.300781-32-32c0 18.699219-16.101562 33.699219-35.101562 31.800781-16.699219-1.5-28.898438-16.5-28.898438-33.199219v-298.601562c0-19.898438 16.101562-36 36-36s36-16.101562 36-36v-28h48v28c0 19.898438 16.101562 36 36 36s36 16.101562 36 36v298.601562c0 16.699219-12.199219 31.597657-28.898438 33.199219-19 1.898438-35.101562-13.101562-35.101562-31.800781zm0 0" fill="#b8cbd9"/><path d="m120 76v-28h-48v28c0 19.898438-16.101562 36-36 36s-36 16.101562-36 36v247.699219c92.699219-34.5 160-137.699219 160-259.699219 0-8-.398438-15.898438-.898438-23.699219-1-.101562-2-.300781-3.101562-.300781-19.898438 0-36-16.101562-36-36zm0 0" fill="#e8eff4"/><path d="m0 240h192v112h-192zm0 0" fill="#8bd2f5"/><path d="m240 304 16 176h112l16-176zm0 0" fill="#b8cbd9"/><path d="m254.101562 459c51.898438-15.300781 89.898438-64.5 89.898438-123 0-11.101562-1.5-21.800781-4.101562-32h-99.898438zm0 0" fill="#e8eff4"/></svg>